PathFileType	4	(X/Y/Z)	SUBJ51_2_walk_RCNL2025.trc
DataRate	CameraRate	NumFrames	NumMarkers	Units	OrigDataRate	OrigDataStartFrame	OrigNumFrames
100	100	9	25	mm	100	58	229
Frame#	Time	R_Shoulder			L_Shoulder			C7			J_Notch			R_Elbow			L_Elbow			R_Wrist			L_Wrist			R_Asis			L_Asis			Sacral			Thoracic			Sternum			R_Thigh_Lateral			R_Knee_Lateral			R_Shank_Lateral			R_Ankle_Lateral			R_Heel			R_Toe			L_Thigh_Lateral			L_Knee_Lateral			L_Shank_Lateral			L_Ankle_Lateral			L_Heel			L_Toe		
		X1	Y1	Z1	X2	Y2	Z2	X3	Y3	Z3	X4	Y4	Z4	X5	Y5	Z5	X6	Y6	Z6	X7	Y7	Z7	X8	Y8	Z8	X9	Y9	Z9	X10	Y10	Z10	X11	Y11	Z11	X12	Y12	Z12	X13	Y13	Z13	X14	Y14	Z14	X15	Y15	Z15	X16	Y16	Z16	X17	Y17	Z17	X18	Y18	Z18	X19	Y19	Z19	X20	Y20	Z20	X21	Y21	Z21	X22	Y22	Z22	X23	Y23	Z23	X24	Y24	Z24	X25	Y25	Z25
58	0.57000000	-980.905334	1484.539062	407.688110	-986.526489	1482.662476	-48.409378	-1068.964844	1603.150269	162.224213	-928.187439	1483.044434	175.159042	-1069.936157	1194.202515	514.752319	-1063.591309	1170.027832	-133.184036	-985.696045	934.841461	522.202835	-980.430389	921.234528	-130.790401	-959.082031	1039.091309	316.952667	-940.054443	1032.959229	76.837074	-1167.627197	1070.325439	178.846649	-1177.348999	1395.969482	173.853241	-888.212219	1254.176636	184.667496	-928.525696	656.548645	420.093536	-925.889465	536.810181	375.070892	-1083.932373	403.064087	423.236816	-1240.650513	237.026016	299.011993	-1265.923096	266.274780	232.048233	-1170.786621	89.512543	295.067078	-984.119446	641.501282	-22.074209	-990.214417	522.924438	27.493610	-1009.513611	331.690094	-10.038236	-1029.632080	67.974823	99.527954	-1083.276855	75.191544	155.140686	-873.209534	43.487427	120.380386
59	0.58000000	-968.197205	1485.052979	408.066010	-972.162964	1484.569824	-48.064079	-1055.320068	1604.181763	162.349808	-914.584473	1484.129517	175.358994	-1060.385742	1194.413574	512.433838	-1042.807495	1171.669678	-135.258102	-985.717438	931.957764	519.690582	-950.829254	926.412415	-132.607086	-944.554871	1040.704712	315.549225	-927.544495	1033.663940	75.610764	-1154.043945	1071.406982	179.499634	-1163.692017	1396.843872	173.238098	-874.512268	1255.416382	184.193741	-906.373779	660.653931	420.513824	-901.312866	540.546936	375.330505	-1055.074463	401.600494	423.133514	-1205.196899	229.149475	298.828186	-1232.103760	256.472137	231.595184	-1127.012207	86.384216	297.047150	-977.932129	641.747986	-22.270842	-986.774841	522.956116	27.206997	-1008.103821	331.922272	-10.127128	-1029.444702	68.118385	99.740814	-1083.054565	75.495911	155.296265	-873.167419	43.480282	120.339729
60	0.59000000	-955.377258	1485.254883	408.454498	-957.850891	1486.229980	-47.679680	-1041.693481	1604.934937	162.528351	-900.998901	1484.922119	175.591782	-1051.062500	1194.481445	510.171661	-1022.224182	1173.258423	-137.336212	-985.615540	929.434631	516.958344	-921.384918	931.917328	-134.293980	-930.031860	1042.062012	314.133362	-915.379089	1034.038574	74.687889	-1140.470947	1072.181519	180.203995	-1150.057617	1397.456665	172.730789	-860.846313	1256.350586	183.712677	-884.757690	664.415710	420.747437	-877.420044	543.937683	375.317474	-1026.118774	399.133911	422.980133	-1168.985229	220.203110	298.784912	-1197.538940	245.407318	231.351761	-1082.346558	83.022179	298.816772	-971.641846	641.946472	-22.436781	-983.310974	522.978455	26.913544	-1006.732361	332.167480	-10.219637	-1029.252441	68.275314	99.936844	-1082.784790	75.796143	155.442596	-873.137573	43.481098	120.293861
61	0.60000000	-942.437378	1485.119141	408.862000	-943.578003	1487.611572	-47.254116	-1028.067749	1605.405884	162.766022	-887.420410	1485.412354	175.852844	-1042.010254	1194.385864	507.963318	-1001.845337	1174.757446	-139.421417	-985.326904	927.229584	514.037766	-892.162933	937.690033	-135.848209	-915.520325	1043.140259	312.783264	-903.363770	1034.118286	74.037331	-1126.907349	1072.662231	180.938782	-1136.434448	1397.808105	172.337433	-847.205811	1256.969849	183.243057	-863.681702	667.777344	420.779572	-854.238220	546.941895	375.039581	-997.062012	395.759583	422.786102	-1131.970093	210.321808	298.896149	-1162.156006	233.201218	231.322464	-1036.857178	79.554543	300.371857	-965.179565	642.075500	-22.579979	-979.729492	522.981445	26.609142	-1005.236694	332.401672	-10.314694	-1029.052856	68.446098	100.108658	-1082.455444	76.100899	155.570633	-873.119080	43.484089	120.239395
62	0.61000000	-929.378906	1484.632690	409.302582	-929.335876	1488.689697	-46.786140	-1014.423950	1605.594360	163.069611	-873.836731	1485.594604	176.137787	-1033.249268	1194.118652	505.810394	-981.659180	1176.136963	-141.513153	-984.800049	925.296143	510.970459	-863.225525	943.666809	-137.267502	-901.036011	1043.911743	311.562195	-891.287781	1033.950073	73.595825	-1113.354126	1072.868530	181.691391	-1122.810791	1397.901611	172.066910	-833.582458	1257.267700	182.801941	-843.143677	670.687256	420.594940	-831.794922	549.523743	374.517365	-967.907349	391.576935	422.567535	-1094.105225	199.654678	299.173279	-1125.870361	220.005157	231.507446	-990.626892	76.092361	301.713928	-958.477356	642.106445	-22.701427	-975.933044	522.947937	26.307156	-1003.474426	332.600342	-10.399482	-1028.841431	68.631538	100.256264	-1082.069336	76.424820	155.680618	-873.105286	43.482986	120.175819
63	0.62000000	-916.211914	1483.795898	409.792175	-915.119690	1489.450562	-46.274921	-1000.744202	1605.503052	163.444519	-860.232788	1485.468140	176.444443	-1024.770142	1193.686157	503.718109	-961.644592	1177.376709	-143.607483	-983.994019	923.587280	507.805008	-834.629852	949.786011	-138.550308	-886.606445	1044.341187	310.516937	-879.003113	1033.561035	73.297554	-1099.809937	1072.817505	182.457214	-1109.177002	1397.744019	171.929352	-819.967163	1257.242310	182.398621	-823.148621	673.100342	420.180389	-810.121094	551.647644	373.779480	-938.670471	386.690552	422.340210	-1055.350586	188.367905	299.623413	-1088.601074	206.006088	231.906265	-943.751648	72.739647	302.861298	-951.480164	642.007812	-22.793669	-971.833130	522.854797	26.035835	-1001.348572	332.742950	-10.454848	-1028.611084	68.832535	100.387260	-1081.647949	76.786308	155.781387	-873.082764	43.472439	120.106697
64	0.63000000	-902.953674	1482.623291	410.345703	-900.925171	1489.890137	-45.718990	-987.014771	1605.137329	163.893677	-846.593384	1485.036255	176.774948	-1016.531982	1193.104858	501.694092	-941.779114	1178.468750	-145.696426	-982.876099	922.060242	504.595428	-806.428741	955.991974	-139.695824	-872.258728	1044.389893	309.681030	-866.453308	1032.948608	73.090843	-1086.270874	1072.519653	183.237381	-1095.525146	1397.345703	171.934036	-806.350708	1256.896729	182.033386	-803.719177	674.977539	419.527100	-789.252075	553.275757	372.858582	-909.381958	381.210205	422.117432	-1015.680176	176.647354	300.249023	-1050.285522	191.427002	232.519180	-896.335571	69.605980	303.852661	-944.157654	641.751221	-22.842632	-967.359131	522.678101	25.829079	-998.814026	332.817474	-10.461114	-1028.354614	69.051109	100.514023	-1081.221802	77.202805	155.887405	-873.032349	43.448792	120.039314
65	0.64000000	-889.625305	1481.141968	410.974976	-886.746277	1490.012329	-45.116779	-973.226257	1604.504639	164.417679	-832.906677	1484.305176	177.135010	-1008.463318	1192.395752	499.749420	-922.046326	1179.416626	-147.767593	-981.418579	920.679260	501.398117	-778.671997	962.236359	-140.703148	-858.001587	1044.028564	309.077942	-853.658936	1032.088257	72.943245	-1072.731323	1071.975342	184.036240	-1081.849609	1396.718384	172.086212	-792.725708	1256.236694	181.699615	-784.900757	676.283691	418.632263	-769.225342	554.369690	371.787384	-880.085876	375.251617	421.911224	-975.087158	164.700485	301.047089	-1010.887329	176.523651	233.341476	-848.490051	66.818291	304.743683	-936.508606	641.316345	-22.833012	-962.462524	522.399353	25.717285	-995.872864	332.825409	-10.402633	-1028.067139	69.291977	100.650467	-1080.811890	77.685547	156.014893	-872.932861	43.409996	119.982025
66	0.65000000	-876.246765	1479.388916	411.686279	-872.572815	1489.826782	-44.467613	-959.372864	1603.614014	165.015686	-819.164368	1483.281372	177.531281	-1000.469482	1191.580566	497.899139	-902.438538	1180.232178	-149.805481	-979.595093	919.412689	498.267654	-751.405640	968.478455	-141.570602	-843.821655	1043.247559	308.719482	-840.681641	1030.947266	72.838715	-1059.183716	1071.176147	184.858871	-1068.146240	1395.873657	172.383820	-779.088013	1255.269043	181.386795	-766.763184	676.985840	417.501801	-750.075684	554.896667	370.594330	-850.839050	368.938873	421.733368	-933.593872	152.759201	302.010284	-970.404846	161.578751	234.358551	-800.338135	64.527275	305.599335	-928.555054	640.694946	-22.754045	-957.119385	522.009399	25.722193	-992.560669	332.782318	-10.271144	-1027.746338	69.563667	100.810158	-1080.416138	78.238152	156.178375	-872.768677	43.355621	119.941254
